<?xml version="1.0" encoding="UTF-8"?>
<svg id="Layer_1" data-name="Layer 1" xmlns="http://www.w3.org/2000/svg" viewBox="0 0 702.1 767.11">
  <defs>
    <style>
      .cls-1 {
        fill: #00bc7d;
      }
    </style>
  </defs>
  <path class="cls-1" d="M174.06,362.53l43.96,30.94c2.5.53,11.93-7.27,11.32-9.67-15.22-13.27-31.94-25.07-48.21-37.12-1.12.18-12.32,13.96-7.06,15.85Z"/>
  <path class="cls-1" d="M158.49,381.06c-1.71,2.82-3.4,5.72-5.48,8.29l34.62,26.34c1.59.41.88-.23,1.29-.94,2.96-5.26,5.04-8.53,9.58-12.78l-36.39-25.1c-2.78-.79-2.55,2.42-3.62,4.2Z"/>
  <path class="cls-1" d="M158.44,478.63c-4.06-4.06-9.71,2.16-7.82,7.01,5.47,3.92,12.19-2.65,7.82-7.01Z"/>
  <path class="cls-1" d="M160.15,508.24c-.26-1.3-4.56-3.72-5.87-3.59-1.36.12-5.6,3.68-5.37,5.01.69,4.08,12.29,4.13,11.24-1.42Z"/>
  <path class="cls-1" d="M515.82,212c.87.2,1.64.76,2.51.02,4.12-20.43,13.09-40.3,15.39-61.09,2.15-19.31-.12-39.27-.84-58.55-.33-8.54-.05-17.13-.78-25.66l-20.28,11.87c-19.38,14.37-41.62,28.62-59.84,44.3-1.89,1.62-3.49,3.57-5.32,5.27,7.16-.63,13.5-.52,20.62.53,3.24.48,9.71,1.66,12.52,2.93,1.1.5,1.29.09,1.03,1.81l-48.82,17.92c-.92,2.42,1.65,1.08,2.28,1.78.37.42-.05,1.67.33,2.12.47.53,3.11-.43,2.27,1.37-3.55,7.56-29.98,8.42-37.63,9.57-.71.11-2.44.37-2.22,1.42,29.6,8.39,58.58,18.91,87.04,30.55,8.79,3.59,23.44,11.91,31.74,13.84Z"/>
  <path class="cls-1" d="M82.96,352.31c2.27,2.34,13.15-10.78,14.62-12.63,1.58-1.96,9.44-11.28,7.34-13.4-12.01-.4-20.02,15.83-21.97,26.03Z"/>
  <path class="cls-1" d="M684.14,375.62c-30.28-63.5-66.62-123.82-103.83-183.39-1.13-64.68-9.66-128.95-22.18-192.23l-111.4,68.01c-18.04,11.12-34.87,24.13-53.41,34.47-30.76-.84-61.31,1.42-91.89,4.11-18.29,1.61-44.77,7.77-62.08,3.48-14.84-3.68-35.89-14.01-50.36-20.43-11.13-4.94-26.7-14.61-37.67-17.66-1.32-.37-2.66-.64-4.04-.31-6.99,32.42-7.74,66.07-15.17,98.33-15.26,11.92-29.28,23.83-42.68,37.86-13.12,13.73-25.22,28.59-37.91,42.72l.02,2.45c7.54,13.94,13.58,28.91,18.03,43.98-18.64,41.39-45.34,78.54-69.6,116.71,6.79,14.81,14.82,29.16,17.04,45.59.34,2.55-.23,5.35.11,8.03,1.12,8.79,16.64,47.11,21.71,54.78,4.27,6.48,13.07,6.66,14.07,8.08.63.89,2.61,12.43,3.41,15.12,7.56,25.51,21.78,48.18,36.86,69.73,9.66,13.79,4.38-2.82,12.05-2.32,5.78.38,23.86,16.08,30.34,20.14,11.96,7.5,25.73,13.6,38.48,19.69,1.67-2.29-13.21-25.58-11.38-30.92,22.33,7.28,45.99,9.09,69.16,12.19.86-.84-5.38-11.73-5.97-14.04-.2-.74-.72-1.23.24-1.8l46.21-19.84c3.8-.53,8.23,9.73,9.55,12.92,12.25,29.86,16.13,68.16,3.01,98.17-9.51,21.76-24.91,35.93-43.25,50.31.03,1.8,11.48,4.05,13.53,4.37,22.06,3.49,52.4,3.74,74.71,2.52,5.55-.31,11.36.94,16.65-1.26,41.21-35.2,86.22-64.55,124.98-102.84,73.79-72.88,122.52-155.35,150.51-255.51,6.81-24.36,11.46-49.02,15.07-74.04,1.99-.26,1.29,0,1.7,1.13,8.77,24.08,15.21,46.47,13.73,72.49-4.17,73.44-37.12,157.88-79.88,217.11-15.01,20.81-32.25,39.09-49.09,58.32-.68.79-5.02,5.93-4.45,6.52,43.95-24.19,84.13-57.58,113.75-98.2,29.67-40.68,48.45-80.75,60.62-129.77,2.33-9.43,8.43-31.72,8.62-40.26.22-9.38-13.32-34.78-17.95-44.5ZM575.24,284.39c1.87-.66,3.62-1.49,5.68-1.24l-22.39,15.87c-.84.59-4.71,2.43-10.76,5.14-.38-.36-.64-.12-.85.38-31.41,14.09-116.76,50.14-144.46,61.82l-88.1,29.8c-4.08-.29-9.74.81-13.57-.09-1.35-.3-6.68-1.96-8.13-2.45-1.1-.37-7.65-2.74-7.91-3.08-.52-.71.46-2.02,1.33-2.32,52.19-16.38,103.63-35.05,155.28-53.02,28.57-9.93,58.88-18.41,86.89-29.47,15.7-6.19,31.38-15.81,46.99-21.35ZM468.37,409.41c-27.77,15.14-57.33,29.1-87.18,39.74-9.76,3.48-36.44,13.12-45.57,11.36-2.63-.51-7.49-6.19-10.83-7.89-7.15-3.6-16.14-3.15-23.44-5.85-1.12-.41-1.4.3-1.14-1.69,32.57-6.44,63.59-18.96,94.12-31.6,51.1-21.16,103.89-45.33,149.42-76.78,9.51-6.57,18.22-14.31,28.21-20.19.79,1.07-1.87,9.09-2.42,11-12.58,43.48-32.7,84.7-51.97,125.4-2.95,6.22-11.32,28.61-15.61,31.58-6.23,4.31-21.63,9.03-29.55,12.76-15.2,7.17-30.25,16.09-45.54,22.82-23.33,10.25-31.62,10.62-55.05.25-2.52-1.12-4-3.29-6.89-3.69-19.09-2.63-39.75,5.09-57.81,4.99-.97-.01-3.66-.2-3.65-1.29.04-2.05,26.94-11.39,30.89-13.04,49.83-20.88,95.5-42.03,143.75-66.18,4.02-2.01,9.99-3.61,13.58-5.95,4.91-3.17,9.47-15.31,12.61-20.75,7.25-12.57,15.62-24.69,20.48-38.5l-56.41,33.5ZM239.85,369.14c6,8.23,9.95,17.02,15.26,25.42,6.67,10.5,17.71,22.23,23.16,32.17.38.67,1.13.85.78,2.06-30.57,6.9-62.31,9.49-92.79,16.66-4.48,1.05-9.02,2.29-13.41,3.67-5.38,1.69-8.49,4.93-14.44,3.89-3.83-.67-12.86-6.41-11.84,2.04.81,6.82,12.03.66,14.92.53,3.21-.14,4.71,2.04,7.36,2.45,12.68,2.02,47.93-3.91,62.49-5.76,12.58-1.59,29.8-6.09,41.71-6.31,6.22-.12,4.96,10.06,3.36,13.96-2.15,5.24-23.03,8.52-28.8,9.44-17.92,2.87-36.31,4.02-54.29,6.74-4.18.63-18.71,2.29-21.32,3.92-2.35,1.48-2.7,7.2-1.52,7.38l45.54-.79c17.74-1.35,35.5-3.5,53.26-4.1-2,9.45-1.76,14.48-12.16,16.72-23.44,5.02-55.25,3.18-80.18,6.06-3.06.36-9.35.48-10.57,3.27-2.18,5.02.58,5.35,4.88,5.67,13.32,1.01,27.28,1.37,40.63,1.67,13.96.31,27.98-.31,41.94-.03-.64,1.44-2.52,2.28-3.82,3.09-13.27,8.28-45.7,26.93-59.8,30.52-6.28,1.61-15.07-2.29-21.22-4.51-23.31-8.43-53.89-23.14-74.09-37.39-3.68-2.6-15.5-11.08-17.53-14.2-5.19-7.94,1.32-28.78,4.74-37.35,23.13-13.02,48.08-23.66,69.19-39.84.36-.8-14.08-6.09-15.52-8.07-2.53-3.49.57-9.85,2.37-13.21,8.55-16.09,19.31-34.45,29.1-49.84,3.23-5.08,10.14-17.67,15.07-19.92,3.78-1.73,7.64-1.25,11.67-2.15l88.62-.89c1.71-.59,1.37-4.12,2.09-6.04,4.42-11.74,21.68-28.94,34.64-29.65,14.31-.77,29.07,6.87,42.66,9.4,16.4,3.06,33.85,1.63,50.49,2-2.38,3.48-6.38,6.24-10.02,8.28-24.2,13.56-57.9,27.61-83.81,39.06-10.6,4.68-21.63,8.44-32.06,13.53-22.77-5.33-45.63-10.87-68.58-15.3,6.54,9.13,15.15,16.62,21.82,25.78ZM235.07,284.32v-.03c.02-.43.39-.27.86-.41.21-.09.44-.2.73-.3,4.25-1.83,16.73-6.3,33.45-4.76,5.34.5-2.59,22.13-14.69,23.64-15.75,1.95-19.58-14.03-20.23-17.5,0-.02,0-.03-.01-.05-.07-.26-.1-.44-.1-.57ZM357.17,200.98c2.99.75,6.05,1.75,8.94,2.85,24.81,9.54,49.7,22.08,74.44,32.15,37.45,15.22,75.84,28.51,115.14,38.24l-15.45,6.09c-18.32,2.41-43.09,14.96-60.99,8.92-12.14-4.1-37.85-20.16-49.92-27.38-27.85-16.65-51.51-35.7-72.17-60.86ZM525.05,44.61c2.48-1.33,19.08-10.47,20.06-9.62,4.46,29.5,9.64,59.21,11.43,89.06.62,10.3,2.07,30.24.59,39.71-3.03,19.34-16.85,44.15-18.51,63.67-.9,10.62,7.03,14.57,9.75,23.99-14.44-5-29.19-9.41-43.55-14.62-38.07-13.82-75.5-29.26-113.88-42.34-18.44-6.28-36.93-13.04-56.02-17.12-1.31.3-4.39,12.92-6.85,15.54-3.46,3.69-15.84,10.31-20.82,13.14-12.28,6.98-30.88,13.97-41.49,21.97-1.68,1.28-3.38,2.22-2.99,4.73,1.81,1.75,20.62-5.25,24.02-6.49,13.04-4.77,31.29-15.47,43.68-18.16,6.96-1.51,7.57-.85,12.02,3.93,8.39,9.02,16.41,20.87,24.82,30.51,10.59,12.12,22.26,23.4,32.58,35.77,1.33,1.62,12.8,15.31,11.78,16.28-40.59-17.42-84.48-28.4-121.76-52.71-8.7,2.42-16.38,7.36-24.71,10.81-11.02,4.56-22.46,8.78-33.74,12.64-5.26,1.8-28.07,10.02-31.79,9.44-2.64-.42-9.69-19.77-9.4-22.89.36-3.78,2.94-2.91,5.51-4.32,31.34-17.16,62.11-42.5,93.08-61.5,23.59-14.48,48.96-25.59,72.89-39.39,55.58-32.06,105.96-71.45,163.28-101.99ZM27.19,399.48c20.3-32.57,41.31-65.77,58.64-100.04,7.93-15.68,22.37-46.24,23.88-63.17.79-8.83-1.63-8.1-6.81-2.76-5.47,5.62-16.7,21.05-18.89,28.3-.99,3.28-1.59,13.88-3.49,15.63-1.44,1.35-1.37-.51-1.69-1.15-1.78-3.49-6.89-16.4-7.68-19.99-.31-1.45-.74-2.61-.03-4.11,32.32-44.34,75.18-75.37,123.59-100.19,25.73-13.19,45.48-19.88,74.29-24.16,13.49-2.01,34.9-5.64,47.9-5.86,2.38-.03,5.75.47,8.13.9,1.32.25,1.42-.54,1.24,1.59-29.42,6.39-58.46,14.95-85.73,27.78-35.53,16.74-66.97,40.54-100.65,60.46-6.46,13.35-11.14,27.6-16.25,41.53-5.41,14.78-13.12,33.12-17.26,47.82-.31,1.12-1.49,1.57.59,1.41l24.69-23.31c7.78-16.6,14.81-33.54,20.7-50.91.82-2.44.94-5.99,1.86-7.91,1.97-4.14,13.52-7.96,18-10.47,21.11-11.84,40.94-26.05,61.86-38.23,28.93-16.86,61.87-32.71,93.4-44.11,12.03-4.35,25.12-7.51,37.85-8.93-3.65,4.2-8.91,6.74-13.59,9.6-56.18,34.39-115.51,63.59-168.41,103.35-2.52,2.48-11.7,2.2-12.88,4.21-1.57,2.66,1.48,11.63,1.93,15.17,2,15.5,2.33,31.29,2.56,46.92-21.23,14.11-34.62,38.21-44.9,61.05-6.55,14.53-12.9,30.52-16.16,46.09l-87.84-1.61,1.18-4.9ZM19.48,420.26c-.33-1.79.35-.99,1.23-1.22,5.26-1.35,17.59-1.53,23.56-1.67,15.08-.36,30.17.69,45.2,1.66.24,2.12-.01,1.29-1.19,1.65-6.35,1.87-28.54,4.24-31.74,8.14-1.02,1.25-.99,3.54-1.39,3.89-2.39,2.12-23.04-.56-27.52-.25-1.11-.54-7.88-10.76-8.14-12.2ZM49.19,510.96c-2.89,0-14.71-32.17-16.08-36.79-1.65-5.61-5.63-19.43-4.65-24.63.15-.85.36-1.71,1.29-2,3.14-.92,8.62,6.7,10.43,8.98,3.65,4.6,7.39,10.47,10.58,15.46,2.2,3.45,10.25,15.45,10.87,18.42,1.48,7.08-7.98,15.58-12.43,20.55ZM214,602.56c-2.43.67-6.38-.43-7.24,2.58-1.1,3.84,3.32,8.39,3.12,12.42-2.48.1-4.8-.76-7.13-1.41-13.5-3.75-30.71-8.92-43.54-14.23-9.77-4.05-18.61-10.17-28.26-14.45,3.63,11.46,11.08,22.33,14.68,33.73.39,1.24,1.41,3.4.38,4.5-14.16-10.65-26.86-23.01-39.69-35.18l-3.07-.27c-1.56,1.08-2.04,9.11-2.42,9.43-.11.09-2.07.1-2.34-.09-8.66-17.93-21.04-34.24-26.53-53.62-1.99-6.99-6.52-23.11,4.25-25.1,6.04-1.12,28.84,15.85,35.27,19.74,15.79,9.55,36.52,17.89,54.03,24.08,24.41,8.64,29.28,8.46,54.12,1.2,27.77-8.11,54.53-21.2,83.81-23.18l-33.36,21.14c6.73.61,43.94-15.35,47.19-12.19.21,1.42.05,1.79-.85,2.82-1.97,2.28-12.87,7.96-16.22,9.81-23.76,13.02-60.49,31.16-86.23,38.26ZM599.89,341.92c.27,137.95-162.4,304.64-198.45,339.87-.61.23-1.16.49-1.58.84-.66.53-1.05,1.41-1.55,2.21-2.51,2.41-3.87,3.69-3.88,3.7-18.2,15.81-35.03,30.25-55.38,43.93-20.45,13.75-43.84,27.53-68.93,29.11,2.74-4.46,6.02-8.94,9.75-12.62,25.07-24.68,60.72-47.68,88.27-71.2,108.67-92.79,189.41-197.69,219.06-340.75,4.85-23.41,8.6-47.11,10.84-70.94,1.37.01,1.55,2.71,1.62,3.66.86,11.14,1.54,23.05,1.66,34.14.15,13.5-1.42,35.91-1.42,35.91-.03.71-.02,1.42.01,2.15Z"/>
</svg>